<?xml version="1.0" encoding="UTF-8" standalone="no"?>
<svg
   width="100%"
   height="100%"
   viewBox="0 0 86 86"
   version="1.1"
   xml:space="preserve"
   style="fill-rule:evenodd;clip-rule:evenodd;stroke-linejoin:round;stroke-miterlimit:2;"
   id="svg53"
   sodipodi:docname="ubuntu-nednieuws.svg"
   inkscape:version="1.1 (c4e8f9e, 2021-05-24)"
   inkscape:export-filename="/Users/sander/Documents/Projecten/ubuntu-nednieuws/assets/ubuntu-nednieuws.png"
   inkscape:export-xdpi="571.53491"
   inkscape:export-ydpi="571.53491"
   xmlns:inkscape="http://www.inkscape.org/namespaces/inkscape"
   xmlns:sodipodi="http://sodipodi.sourceforge.net/DTD/sodipodi-0.dtd"
   xmlns:xlink="http://www.w3.org/1999/xlink"
   xmlns="http://www.w3.org/2000/svg"
   xmlns:svg="http://www.w3.org/2000/svg"><sodipodi:namedview
   id="namedview55"
   pagecolor="#ffffff"
   bordercolor="#666666"
   borderopacity="1.0"
   inkscape:pageshadow="2"
   inkscape:pageopacity="0.0"
   inkscape:pagecheckerboard="0"
   showgrid="false"
   inkscape:zoom="9.0581395"
   inkscape:cx="43"
   inkscape:cy="42.889602"
   inkscape:window-width="1680"
   inkscape:window-height="997"
   inkscape:window-x="0"
   inkscape:window-y="25"
   inkscape:window-maximized="0"
   inkscape:current-layer="svg53" />
    <rect
   style="clip-rule:evenodd;fill:#e74e4c;fill-opacity:1;fill-rule:evenodd;stroke-width:389.327;stroke-linecap:round;stroke-linejoin:round;stroke-miterlimit:2"
   id="rect1038-5"
   width="86"
   height="86"
   x="0"
   y="0"
   inkscape:export-filename="/Users/sander/Documents/Projecten/ubuntu-nednieuws/assets/rect1038-5.png"
   inkscape:export-xdpi="571.53491"
   inkscape:export-ydpi="571.53491" /><rect
   style="clip-rule:evenodd;fill:url(#linearGradient1056);fill-opacity:1;fill-rule:evenodd;stroke-width:280.619;stroke-linecap:round;stroke-linejoin:round;stroke-miterlimit:2"
   id="rect1038-5-7"
   width="61.987164"
   height="61.987164"
   x="12.006418"
   y="-73.993584"
   inkscape:export-filename="/Users/sander/Documents/Projecten/ubuntu-nednieuws/assets/rect1038-5.png"
   inkscape:export-xdpi="571.53491"
   inkscape:export-ydpi="571.53491"
   transform="rotate(90)"
   ry="13.045668" />
    
    
    
    
    
    
    
    
    
    <g
   transform="matrix(0.702545,0,0,0.70253959,4.5782178,11.313652)"
   id="g12">
        <text
   x="17.851"
   y="19.225"
   style="font-weight:700;font-size:12px;font-family:Arial-BoldMT, Arial, sans-serif"
   id="text10"><tspan
     style="font-style:normal;font-variant:normal;font-weight:bold;font-stretch:normal;font-family:Arial;-inkscape-font-specification:'Arial Bold'"
     id="tspan3142">NEDNIEUWS</tspan></text>
    </g><g
   transform="matrix(1.2216596,0,0,1.2216502,-0.61633159,-5.7156755)"
   id="g16">
        <path
   d="m 31.415,31.642 c 0,-2.277 -1.849,-4.126 -4.126,-4.126 h -8.253 c -2.278,0 -4.127,1.849 -4.127,4.126 v 8.253 c 0,2.278 1.849,4.127 4.127,4.127 h 8.253 c 2.277,0 4.126,-1.849 4.126,-4.127 z"
   style="fill:#f1993e"
   id="path14" />
    </g><g
   transform="matrix(0.8608505,0,0,0.67938265,6.368593,10.646824)"
   id="g20">
        <rect
   x="41.056999"
   y="25.989"
   width="30.660999"
   height="2.0880001"
   style="fill:#f1993e"
   id="rect18" />
    </g><g
   transform="matrix(0.8608505,0,0,0.67938265,6.368593,16.76587)"
   id="g24">
        <rect
   x="41.056999"
   y="25.989"
   width="30.660999"
   height="2.0880001"
   style="fill:#f1993e"
   id="rect22" />
    </g><g
   transform="matrix(0.8608505,0,0,0.67938265,6.368593,22.885023)"
   id="g28">
        <rect
   x="41.056999"
   y="25.989"
   width="30.660999"
   height="2.0880001"
   style="fill:#f1993e"
   id="rect26" />
    </g><g
   transform="matrix(0.8608505,0,0,0.67938265,6.368593,29.004087)"
   id="g32">
        <rect
   x="41.056999"
   y="25.989"
   width="30.660999"
   height="2.0880001"
   style="fill:#f1993e"
   id="rect30" />
    </g><g
   transform="matrix(1.632597,0,0,0.67938265,-48.979354,35.15264)"
   id="g36">
        <rect
   x="41.056999"
   y="25.989"
   width="30.660999"
   height="2.0880001"
   style="fill:#f1993e"
   id="rect34" />
    </g><g
   transform="matrix(1.632597,0,0,0.67938265,-48.979354,41.271704)"
   id="g40">
        <rect
   x="41.056999"
   y="25.989"
   width="30.660999"
   height="2.0880001"
   style="fill:#f1993e"
   id="rect38" />
    </g><g
   transform="matrix(1.632597,0,0,0.67938265,-48.979354,47.390768)"
   id="g44">
        <rect
   x="41.056999"
   y="25.989"
   width="30.660999"
   height="2.0880001"
   style="fill:#f1993e"
   id="rect42" />
    </g>
    <defs
   id="defs51">
        <linearGradient
   id="_Linear1"
   x1="0"
   y1="0"
   x2="1"
   y2="0"
   gradientUnits="userSpaceOnUse"
   gradientTransform="matrix(64.196,0,0,54.47,10.902,37.164)"><stop
     offset="0"
     style="stop-color:rgb(250,250,250);stop-opacity:1"
     id="stop46" /><stop
     offset="1"
     style="stop-color:rgb(200,200,200);stop-opacity:1"
     id="stop48" /></linearGradient>
    <linearGradient
   inkscape:collect="always"
   xlink:href="#_Linear1"
   id="linearGradient1056"
   x1="40.46085"
   y1="25.391527"
   x2="126.46085"
   y2="25.391527"
   gradientUnits="userSpaceOnUse"
   gradientTransform="matrix(0.72078097,0,0,0.72078094,-17.156992,-61.301737)" /></defs>
</svg>
