<?xml version="1.0" encoding="UTF-8" standalone="no"?>
<!-- Created with Inkscape (http://www.inkscape.org/) -->

<svg
   width="96"
   height="96"
   id="svg4874"
   version="1.1"
   inkscape:version="1.1 (c4e8f9e, 2021-05-24)"
   viewBox="0 0 96 96.000001"
   sodipodi:docname="image-x-generic-symbolic.svg"
   xmlns:inkscape="http://www.inkscape.org/namespaces/inkscape"
   xmlns:sodipodi="http://sodipodi.sourceforge.net/DTD/sodipodi-0.dtd"
   xmlns="http://www.w3.org/2000/svg"
   xmlns:svg="http://www.w3.org/2000/svg"
   xmlns:rdf="http://www.w3.org/1999/02/22-rdf-syntax-ns#"
   xmlns:cc="http://creativecommons.org/ns#"
   xmlns:dc="http://purl.org/dc/elements/1.1/">
  <defs
     id="defs4876" />
  <sodipodi:namedview
     id="base"
     pagecolor="#ffffff"
     bordercolor="#666666"
     borderopacity="1.0"
     inkscape:pageopacity="0.0"
     inkscape:pageshadow="2"
     inkscape:zoom="5.6199992"
     inkscape:cx="28.024915"
     inkscape:cy="57.562286"
     inkscape:document-units="px"
     inkscape:current-layer="g4780"
     showgrid="true"
     showborder="true"
     fit-margin-top="0"
     fit-margin-left="0"
     fit-margin-right="0"
     fit-margin-bottom="0"
     inkscape:snap-bbox="true"
     inkscape:bbox-paths="true"
     inkscape:bbox-nodes="true"
     inkscape:snap-bbox-edge-midpoints="true"
     inkscape:snap-bbox-midpoints="true"
     inkscape:object-paths="true"
     inkscape:snap-intersection-paths="true"
     inkscape:object-nodes="true"
     inkscape:snap-smooth-nodes="true"
     inkscape:snap-midpoints="true"
     inkscape:snap-object-midpoints="true"
     inkscape:snap-center="true"
     showguides="true"
     inkscape:guide-bbox="true"
     inkscape:snap-global="true"
     inkscape:pagecheckerboard="0"
     inkscape:window-width="1680"
     inkscape:window-height="997"
     inkscape:window-x="0"
     inkscape:window-y="25"
     inkscape:window-maximized="0">
    <inkscape:grid
       type="xygrid"
       id="grid5451"
       empspacing="8" />
    <sodipodi:guide
       orientation="1,0"
       position="8,-8.0000001"
       id="guide4063" />
    <sodipodi:guide
       orientation="1,0"
       position="4,-8.0000001"
       id="guide4065" />
    <sodipodi:guide
       orientation="0,1"
       position="-8,88.000001"
       id="guide4067" />
    <sodipodi:guide
       orientation="0,1"
       position="-8,92.000001"
       id="guide4069" />
    <sodipodi:guide
       orientation="0,1"
       position="104,4"
       id="guide4071" />
    <sodipodi:guide
       orientation="0,1"
       position="-5,8.0000001"
       id="guide4073" />
    <sodipodi:guide
       orientation="1,0"
       position="92,-8.0000001"
       id="guide4075" />
    <sodipodi:guide
       orientation="1,0"
       position="88,-8.0000001"
       id="guide4077" />
    <sodipodi:guide
       orientation="0,1"
       position="-8,84.000001"
       id="guide4074" />
    <sodipodi:guide
       orientation="1,0"
       position="12,-8.0000001"
       id="guide4076" />
    <sodipodi:guide
       orientation="0,1"
       position="-5,12"
       id="guide4078" />
    <sodipodi:guide
       orientation="1,0"
       position="84,-9.0000001"
       id="guide4080" />
    <sodipodi:guide
       position="48,-8.0000001"
       orientation="1,0"
       id="guide4170" />
    <sodipodi:guide
       position="-8,48"
       orientation="0,1"
       id="guide4172" />
  </sodipodi:namedview>
  <metadata
     id="metadata4879">
    <rdf:RDF>
      <cc:Work
         rdf:about="">
        <dc:format>image/svg+xml</dc:format>
        <dc:type
           rdf:resource="http://purl.org/dc/dcmitype/StillImage" />
        <dc:title />
      </cc:Work>
    </rdf:RDF>
  </metadata>
  <g
     inkscape:label="Layer 1"
     inkscape:groupmode="layer"
     id="layer1"
     transform="translate(67.857146,-78.50504)">
    <g
       transform="matrix(0,-1,-1,0,373.50506,516.50504)"
       id="g4845"
       style="display:inline">
      <g
         inkscape:export-ydpi="90"
         inkscape:export-xdpi="90"
         inkscape:export-filename="next01.png"
         transform="matrix(-0.9996045,0,0,1,575.94296,-611.00001)"
         id="g4778"
         inkscape:label="Layer 1">
        <g
           transform="matrix(-1,0,0,1,575.99999,611)"
           id="g4780"
           style="display:inline">
          <rect
             style="color:#000000;display:inline;overflow:visible;visibility:visible;fill:none;stroke:none;stroke-width:4;marker:none;enable-background:accumulate"
             id="rect4782"
             width="96.037987"
             height="96"
             x="-438.00244"
             y="345.36221"
             transform="scale(-1,1)" />
          <g
             aria-label="Aa"
             transform="matrix(0,-0.99980223,-1.0001978,0,0,0)"
             id="text1130"
             style="font-size:72.6006px;fill:#808080;stroke-width:1.81502">
            <path
               style="color:#000000;-inkscape-font-specification:Ubuntu;-inkscape-stroke:none"
               d="m -394.17001,-365.14954 q -1.23421,-3.26702 -2.32322,-6.38885 -1.08901,-3.19443 -2.25062,-6.46145 h -22.79659 l -4.57383,12.8503 h -7.33267 q 2.90403,-7.98606 5.44505,-14.73792 2.54102,-6.82445 4.93684,-12.92291 2.46842,-6.09845 4.86424,-11.61609 2.39582,-5.59025 5.00944,-11.03529 h 6.46146 q 2.61362,5.44504 5.00944,11.03529 2.39582,5.51764 4.79164,11.61609 2.46842,6.09846 5.00944,12.92291 2.54102,6.75186 5.44504,14.73792 z m -6.60666,-18.65835 q -2.32321,-6.31625 -4.64643,-12.1969 -2.25062,-5.95325 -4.71904,-11.3983 -2.54102,5.44505 -4.86424,11.3983 -2.25062,5.88065 -4.50124,12.1969 z"
               id="path3550" />
            <path
               style="color:#000000;-inkscape-font-specification:Ubuntu;-inkscape-stroke:none"
               d="m -367.37245,-370.01378 q 2.39582,0 4.21084,-0.0726 1.88761,-0.1452 3.12182,-0.4356 v -11.25309 q -0.726,-0.36301 -2.39582,-0.58081 -1.59721,-0.2904 -3.92043,-0.2904 -1.52461,0 -3.26703,0.2178 -1.66981,0.2178 -3.12182,0.94381 -1.37941,0.6534 -2.32322,1.88761 -0.94381,1.16161 -0.94381,3.12183 0,3.63003 2.32322,5.08204 2.32322,1.37941 6.31625,1.37941 z m -0.5808,-33.83188 q 4.06563,0 6.82445,1.08901 2.83143,1.01641 4.50124,2.97663 1.74241,1.88761 2.46842,4.57383 0.72601,2.61363 0.72601,5.80805 v 23.5952 q -0.87121,0.1452 -2.46842,0.4356 -1.52462,0.2178 -3.48483,0.43561 -1.96022,0.2178 -4.28344,0.363 -2.25062,0.2178 -4.50124,0.2178 -3.19442,0 -5.88064,-0.6534 -2.68623,-0.65341 -4.64644,-2.03282 -1.96022,-1.45201 -3.04923,-3.77523 -1.08901,-2.32322 -1.08901,-5.59025 0,-3.12183 1.23421,-5.37244 1.30681,-2.25062 3.48483,-3.63003 2.17802,-1.37942 5.08204,-2.03282 2.90403,-0.65341 6.09846,-0.65341 1.0164,0 2.10541,0.14521 1.08901,0.0726 2.03282,0.2904 1.01641,0.1452 1.74241,0.2904 0.72601,0.1452 1.01641,0.2178 v -1.88761 q 0,-1.66982 -0.363,-3.26703 -0.363,-1.66981 -1.30681,-2.90403 -0.94381,-1.30681 -2.61362,-2.03281 -1.59722,-0.79861 -4.21084,-0.79861 -3.33963,0 -5.88065,0.50821 -2.46842,0.4356 -3.70263,0.9438 l -0.7986,-5.59024 q 1.30681,-0.58081 4.35603,-1.08901 3.04923,-0.58081 6.60666,-0.58081 z"
               id="path3552" />
          </g>
        </g>
      </g>
    </g>
  </g>
</svg>
